HIERARCHY
ROOT Hips
{
  OFFSET 3.13124 94.3669 -3.18751
  CHANNELS  6 Xposition Yposition Zposition Zrotation Xrotation Yrotation
  JOINT LeftUpLeg
  {
    OFFSET 8.64259 1.95398 -2.38835
    CHANNELS 3 Zrotation Xrotation Yrotation
    JOINT LeftLeg
    {
      OFFSET 43.7702 0 0
      CHANNELS 3 Zrotation Xrotation Yrotation
      JOINT LeftFoot
      {
        OFFSET 40.6238 0 0
        CHANNELS 3 Zrotation Xrotation Yrotation
        JOINT LeftToeBase
        {
          OFFSET 12.7242 0 0
          CHANNELS 3 Zrotation Xrotation Yrotation
          End Site
          {
            OFFSET 0 0 0
          }
        }
      }
    }
  }
  JOINT RightUpLeg
  {
    OFFSET -8.2249 1.95398 -2.59336
    CHANNELS 3 Zrotation Xrotation Yrotation
    JOINT RightLeg
    {
      OFFSET 43.5653 0 0
      CHANNELS 3 Zrotation Xrotation Yrotation
      JOINT RightFoot
      {
        OFFSET 40.6238 0 0
        CHANNELS 3 Zrotation Xrotation Yrotation
        JOINT RightToeBase
        {
          OFFSET 12.7242 0 0
          CHANNELS 3 Zrotation Xrotation Yrotation
          End Site
          {
            OFFSET 0 0 0
          }
        }
      }
    }
  }
  JOINT Spine
  {
    OFFSET 0.165834 0.87714 6.61349
    CHANNELS 3 Zrotation Xrotation Yrotation
    JOINT Spine1
    {
      OFFSET 7.38962 1.71661e-005 0
      CHANNELS 3 Zrotation Xrotation Yrotation
      JOINT Spine2
      {
        OFFSET 11.9445 1.14441e-005 0
        CHANNELS 3 Zrotation Xrotation Yrotation
        JOINT Spine3
        {
          OFFSET 14.7254 4.19617e-005 0
          CHANNELS 3 Zrotation Xrotation Yrotation
          JOINT Spine4
          {
            OFFSET 10.9679 0 0
            CHANNELS 3 Zrotation Xrotation Yrotation
            JOINT RightShoulder
            {
              OFFSET 2.46616 -1.6653 3.69651
              CHANNELS 3 Zrotation Xrotation Yrotation
              JOINT RightArm
              {
                OFFSET 13.0012 0 0
                CHANNELS 3 Zrotation Xrotation Yrotation
                JOINT RightForeArm
                {
                  OFFSET 28.7848 1.52588e-005 0
                  CHANNELS 3 Zrotation Xrotation Yrotation
                  JOINT RightHand
                  {
                    OFFSET 26.5688 1.52588e-005 0
                    CHANNELS 3 Zrotation Xrotation Yrotation
                    End Site
                    {
                      OFFSET 0 0 0
                    }
                  }
                }
              }
            }
            JOINT LeftShoulder
            {
              OFFSET 2.38034 -1.29275 -3.75231
              CHANNELS 3 Zrotation Xrotation Yrotation
              JOINT LeftArm
              {
                OFFSET 16.3182 6.10352e-005 0
                CHANNELS 3 Zrotation Xrotation Yrotation
                JOINT LeftForeArm
                {
                  OFFSET 27.0901 0 0
                  CHANNELS 3 Zrotation Xrotation Yrotation
                  JOINT LeftHand
                  {
                    OFFSET 24.5451 1.52588e-005 0
                    CHANNELS 3 Zrotation Xrotation Yrotation
                    End Site
                    {
                      OFFSET 0 0 0
                    }
                  }
                }
              }
            }
            JOINT Neck
            {
              OFFSET 5.0226 -0.0266342 0
              CHANNELS 3 Zrotation Xrotation Yrotation
              JOINT Head
              {
                OFFSET 6.69363 2.86102e-005 0
                CHANNELS 3 Zrotation Xrotation Yrotation
                End Site
                {
                  OFFSET 0 0 0
                }
              }
            }
          }
        }
      }
    }
  }
}
MOTION
Frames:	9
Frame Time:	0.0333333
56.626 96.8851 32.8035 -90.9598 19.84 -81.2184 179.015 16.3654 89.3601 -7.40195 -47.4115 -4.22134 32.502 20.1704 19.3744 28.7808 2.88281e-006 2.70239e-006 178.145 2.92894 82.1952 -28.4648 33.6721 2.25988 40.9811 -0.971941 -0.165768 28.7808 1.50761e-005 1.87604e-005 0.148213 6.1084 -91.1557 14.6472 -0.345899 -2.18797 2.9745 -0.441867 -2.1706 -19.546 0.327466 -2.19127 0.466646 0.327465 -2.19129 105.587 -22.15 -74.1247 -7.70734 27.7607 17.8449 -4.85605 -3.47724 -27.4141 25.0757 5.73039 19.9234 -74.0191 -19.6327 105.734 8.62793 -25.3745 -5.41926 2.07761 -10.549 -3.09504 45.0412 0.801706 -2.32832 1.44882 33.1735 -10.0878 -26.609 30.293 22.8887 
54.7006 96.1929 32.4141 -91.726 15.613 -80.6015 178.332 16.0814 87.6761 -10.1674 -53.4171 -5.3752 34.6666 24.9864 23.5235 28.7808 2.88281e-006 2.70239e-006 178.011 6.65162 80.9866 -26.4823 35.9915 2.48182 39.4377 1.29663 1.88974 28.7808 1.50761e-005 1.87604e-005 0.313507 6.19515 -91.285 14.4726 -0.0696331 -2.73653 2.79867 -0.190031 -2.73145 -19.7144 0.756097 -2.62385 0.298229 0.756059 -2.62386 104.1 -20.8248 -77.4591 -5.46816 27.5737 18.2392 -4.29142 -2.05496 -29.7132 21.7759 5.53566 22.4749 -74.326 -20.8261 104.867 11.3339 -26.8444 -7.30159 2.11758 -8.12262 -3.13891 41.4216 1.57244 -0.239409 0.662765 35.5187 -5.17618 -25.5312 32.396 21.8026 
53.2681 95.1754 31.7203 -91.1518 10.7763 -80.8365 177.367 15.1121 85.925 -9.4009 -57.3395 -6.34668 37.9034 29.3491 26.4218 28.7808 2.88281e-006 2.70239e-006 177.798 11.4808 80.1467 -23.7444 38.2051 2.79588 40.7597 2.26751 2.67025 28.7808 1.50761e-005 1.87604e-005 0.44558 6.1333 -91.4381 14.5996 0.145169 -2.82572 2.92563 0.0210452 -2.82927 -19.5873 0.985112 -2.65231 0.425352 0.985106 -2.65233 103.245 -21.5761 -79.5494 -4.56827 27.9165 17.1344 -3.91664 -1.25475 -31.1585 21.1196 5.56343 23.4516 -74.5251 -21.7146 104.312 12.3482 -28.6994 -12.4372 2.12424 -7.7294 -3.14612 41.1833 1.40818 -0.619969 0.81179 35.1863 -3.96662 -24.6852 32.2046 20.6294 
52.2747 93.9513 30.7143 -92.0738 4.65662 -80.7069 176.736 13.8099 84.4477 -11.1849 -59.8167 -7.08194 44.0784 31.8721 26.1731 28.7808 2.88281e-006 2.70239e-006 177.489 13.2927 80.0816 -19.939 40.3683 3.09082 43.7753 -1.38527 -0.578555 28.7808 1.50761e-005 1.87604e-005 0.442219 6.29394 -91.4447 14.2784 0.155992 -2.77726 2.60442 0.0335294 -2.78127 -19.9092 0.983959 -2.60338 0.103487 0.983946 -2.60339 102.423 -23.1112 -81.5044 -3.75989 28.3912 15.3963 -3.56855 -0.590176 -32.5995 20.7684 5.7865 24.8932 -75.4136 -23.0239 102.221 12.777 -30.3539 -17.3581 2.16847 -5.16982 -3.19431 41.6817 1.09502 -1.44017 1.05834 33.473 -4.33825 -22.5958 30.9854 19.377 
51.4335 92.4006 29.4462 -93.9482 -2.48285 -81.1284 176.915 15.2281 82.6367 -20.7057 -63.0497 -8.18374 52.8641 32.1921 22.8175 28.7808 2.88281e-006 2.70239e-006 177.582 15.8184 79.43 -20.861 41.026 3.17413 39.4949 -0.626538 0.148085 28.7808 1.50761e-005 1.87604e-005 0.376122 6.51769 -91.4997 13.8259 0.00243044 -2.72197 2.15209 -0.117323 -2.71945 -20.3617 0.820119 -2.59565 -0.34904 0.820114 -2.59567 99.6247 -25.0722 -87.7476 -7.6107 30.1778 21.5591 -2.94328 0.365588 -38.1457 23.4298 6.99153 27.0806 -78.0959 -24.4235 96.3753 12.4894 -31.0322 -20.0091 2.17867 -4.59862 -3.20521 41.9229 0.405056 -3.15209 -1.61277 31.7218 -3.07646 -18.7536 29.8627 17.1521 
50.7577 91.1373 27.8581 -94.4307 -10.408 -81.8162 176.364 13.9375 81.5111 -22.3116 -67.3006 -10.1778 60.2042 31.5625 19.7149 28.7808 2.88281e-006 2.70239e-006 177.889 19.3433 78.6902 -21.2479 35.1325 2.47036 30.1916 0.141334 1.19942 28.7808 1.50761e-005 1.87604e-005 0.190029 6.6361 -91.2815 13.5914 -0.25143 -2.6402 1.9178 -0.367416 -2.62669 -20.5964 0.553767 -2.59251 -0.583759 0.553741 -2.59252 98.7975 -26.3908 -89.4132 -6.92964 31.0245 20.8605 -4.60134 -1.77525 -41.0482 20.4488 6.12396 27.2231 -80.7995 -27.1826 90.8744 11.8278 -32.1774 -24.7944 2.18946 -3.99504 -3.21692 42.55 -0.158894 -4.53404 -2.14355 29.8649 -3.24748 -15.8597 28.6146 14.7042 
50.253 89.7226 25.9515 -94.56 -17.8536 -81.4251 177.898 17.5832 81.3705 -31.6765 -64.464 -8.37715 66.9392 28.8322 15.8062 28.7808 2.88281e-006 2.70239e-006 177.879 21.2634 79.3434 -19.381 34.0676 2.39604 26.9569 -1.9665 -0.993133 28.7808 1.50761e-005 1.87604e-005 0.106155 6.7433 -91.4911 13.3711 -0.514071 -2.60227 1.69775 -0.627221 -2.57592 -20.8166 0.285588 -2.63651 -0.803993 0.285579 -2.63652 99.2342 -25.7594 -88.536 -2.35554 29.8592 13.1482 -5.51718 -3.24984 -37.9762 18.7196 4.94704 23.6236 -83.164 -30.6504 86.6159 10.3161 -33.6034 -32.1039 2.20242 -3.28516 -3.23078 43.834 -0.251394 -4.74513 -1.09675 28.2863 -4.5188 -13.3385 27.6199 12.5048 
50.0681 88.8393 23.9952 -95.686 -25.7887 -84.5952 178.623 18.9135 78.9982 -36.6022 -58.0632 -6.04477 68.7427 25.0314 13.2445 28.7808 2.88281e-006 2.70239e-006 177.679 23.5384 76.491 -21.253 35.2105 2.50357 26.5189 -2.39133 -1.47667 28.7808 1.50761e-005 1.87604e-005 -0.138583 6.94942 -91.1236 12.966 -0.782512 -1.79374 1.29406 -0.862065 -1.75747 -21.231 -0.197614 -1.9474 -1.21838 -0.197636 -1.94742 98.5714 -26.3437 -89.9106 0.911202 28.0332 5.4115 -5.42086 -3.97952 -31.3639 12.9029 3.43132 23.5098 -86.2848 -32.7933 81.1144 6.89915 -33.514 -38.8775 2.17526 -4.7854 -3.20162 48.058 -3.00109 -10.5425 1.68377 26.3275 -7.72834 -14.2644 26.1548 11.6317 
49.8323 88.5746 22.425 -98.0991 -32.5706 -87.8653 178.645 17.2531 77.5066 -37.7969 -53.3657 -4.93489 70.1958 22.7815 11.7071 28.7808 2.88281e-006 2.70239e-006 177.286 23.0982 74.1479 -21.6827 43.7092 3.50835 22.6814 -3.30163 -2.60339 28.7808 1.50761e-005 1.87604e-005 -0.111699 7.34278 -90.8973 12.1824 -0.597029 -1.50981 0.510711 -0.662613 -1.48118 -22.0177 -0.125261 -1.61272 -2.00501 -0.125277 -1.61274 97.9256 -26.4793 -91.2933 2.56884 27.5198 3.17579 -4.15753 -1.7204 -30.7882 9.68652 2.46932 22.0802 -91.7002 -37.1147 72.5988 4.34469 -33.531 -44.9221 2.23514 -1.50349 -3.26587 51.6953 -5.53514 -15.054 1.74744 23.8002 -6.61894 -10.2084 23.8886 10.0763 
